<svg width="35" height="34" viewBox="0 0 35 34" fill="none" xmlns="http://www.w3.org/2000/svg">
<g clip-path="url(#clip0_810_41)">
<mask id="mask0_810_41" style="mask-type:alpha" maskUnits="userSpaceOnUse" x="0" y="0" width="35" height="34">
<circle cx="17.2926" cy="16.9764" r="16.8067" fill="#F578A5"/>
</mask>
<g mask="url(#mask0_810_41)">
<circle cx="17.2926" cy="16.9764" r="16.8067" fill="#56B280"/>
<path d="M9.56204 33.5396V33.9072H9.92969H25.5185H25.8862V33.5396V26.9985C25.8862 26.3977 25.41 25.905 24.8095 25.8846L10.7146 25.4041C10.0845 25.3826 9.56204 25.8876 9.56204 26.518V33.5396Z" fill="white" stroke="white" stroke-width="0.735294"/>
<g clip-path="url(#clip1_810_41)">
<path d="M12.8 11.9714C16.2251 7.20908 14.7518 3.33276 14.7559 3.32816C14.6833 3.13403 14.7818 2.91784 14.976 2.84521C15.0739 2.80858 15.1826 2.81449 15.276 2.86146C21.4577 5.81945 24.1178 9.63796 24.6273 13.0903C24.8298 14.4316 24.7032 15.8021 24.2584 17.0836C23.8508 18.2661 23.1719 19.3367 22.2761 20.2096C20.553 21.8737 18.1449 22.6408 15.7682 21.8632C15.1602 21.6648 14.5865 21.3738 14.0674 21.0004C13.026 20.253 12.236 19.2069 11.802 18.0007C11.3416 16.7106 11.3269 15.3034 11.7605 14.0041C11.9999 13.2768 12.3506 12.5911 12.8 11.9714Z" fill="white"/>
<path d="M14.8312 3.45097C14.6807 3.30856 14.674 3.07105 14.8164 2.92051C14.9588 2.76997 15.1964 2.76333 15.3469 2.90574C15.358 2.91622 15.3684 2.92735 15.3781 2.93911C15.3919 2.95152 18.3765 6.07999 18.8028 12.1266L18.8073 12.1834C18.8993 13.5966 18.8539 15.0155 18.6716 16.4199L20.7124 14.8559C20.8834 14.7387 21.1169 14.7823 21.2341 14.9532C21.3402 15.108 21.3157 15.3172 21.1768 15.4433L18.5097 17.481C17.9126 20.9914 15.8077 25.9575 18.5942 29.0657C18.7284 29.2236 18.7091 29.4604 18.5512 29.5946C18.4009 29.7224 18.1773 29.7119 18.0396 29.5707C14.6982 25.8463 17.1296 21.2324 17.795 17.2426L17.8037 17.1866C18.0743 15.5989 18.167 13.9859 18.0802 12.3777L15.6814 10.6201C15.5103 10.5031 15.4664 10.2696 15.5833 10.0985C15.7003 9.92738 15.9338 9.88349 16.1049 10.0004C16.112 10.0053 16.1189 10.0104 16.1256 10.0157L17.9843 11.3841C17.4045 6.14257 14.8421 3.46354 14.8312 3.45097Z" fill="#56B280"/>
</g>
</g>
</g>
<defs>
<clipPath id="clip0_810_41">
<rect width="33.6134" height="33.6134" fill="white" transform="translate(0.48584 0.169643)"/>
</clipPath>
<clipPath id="clip1_810_41">
<rect width="20.6274" height="20.6274" fill="white" transform="translate(2.46729 16.6356) rotate(-48)"/>
</clipPath>
</defs>
</svg>
